<svg width="1340" height="677" viewBox="0 0 1340 677" fill="none" xmlns="http://www.w3.org/2000/svg">
<path d="M19.043 200.555C48.3595 192.298 219.373 65.4335 284.771 172.405C362.25 299.136 -171.396 568.742 171.639 483.559C452.777 413.746 385.237 648.707 534.337 648.707C672.651 648.707 691.417 502.318 672.651 388.974C641.456 200.555 718.505 222.7 785.407 172.404C852.309 122.109 1108.64 277.499 945.145 406.99C781.649 536.482 772.928 636.902 869.222 648.707C1016.18 666.724 968.6 385.221 1241.32 510.959" stroke="url(#paint0_linear_2019_323)" stroke-width="54"/>
<rect x="2" y="2" width="234.049" height="233.848" rx="60" fill="white"/>
<rect x="2" y="2" width="234.049" height="233.848" rx="60" stroke="#292929" stroke-width="4"/>
<path d="M120.055 172V96.736L122.231 98.656C120.951 101.301 119.116 103.776 116.727 106.08C114.338 108.299 111.522 110.219 108.279 111.84C105.122 113.376 101.58 114.528 97.655 115.296V96.096C100.812 95.6693 104.098 94.6453 107.511 93.024C110.924 91.3173 113.996 89.312 116.727 87.008C119.543 84.6187 121.548 82.2293 122.743 79.84H139.255V172H120.055Z" fill="black"/>
<rect x="245.242" y="416.287" width="234.915" height="233.848" rx="60" fill="white"/>
<rect x="245.242" y="416.287" width="234.915" height="233.848" rx="60" stroke="#292929" stroke-width="4"/>
<path d="M360.25 531.5C366.417 523.667 369.958 517.479 370.875 512.938C371.167 511.521 371.312 510.167 371.312 508.875C371.312 505.833 370.167 503.396 367.875 501.562C365.583 499.729 362.292 498.812 358 498.812C353.958 498.812 349.771 499.875 345.438 502C341.479 503.958 338.667 506.188 337 508.688L336.188 508.812L336.688 490.062C340.354 487.688 345.479 485.958 352.062 484.875C354.104 484.5 356.062 484.312 357.938 484.312C368.438 484.312 376.271 486.833 381.438 491.875C385.854 496.083 388.062 501.708 388.062 508.75C388.062 513.583 386.562 518.792 383.562 524.375C380.979 529.042 377.583 534.083 373.375 539.5L361.125 554.625H381.375C384.125 554.625 386.271 554.521 387.812 554.312C389.396 554.062 390.729 553.521 391.812 552.688L392.25 552.875L387.688 569.938L380.875 569.562C369.083 568.896 352.417 568.854 330.875 569.438L360.25 531.5Z" fill="black"/>
<rect x="661.613" y="97.139" width="234.049" height="234.713" rx="60" fill="white"/>
<rect x="661.613" y="97.139" width="234.049" height="234.713" rx="60" stroke="#292929" stroke-width="4"/>
<path d="M796.188 201.375C806.229 205.625 811.25 212.833 811.25 223C811.25 231.083 807.938 237.792 801.312 243.125C794.354 248.75 785.146 251.562 773.688 251.562C762.646 251.562 753.771 249 747.062 243.875L746.812 227.188L747.438 226.438C752.438 233.229 761.146 236.625 773.562 236.625C788.062 236.625 795.312 231.812 795.312 222.188C795.312 218.729 793.188 216.021 788.938 214.062C785.104 212.312 780.646 211.438 775.562 211.438C768.562 211.438 763.188 212.625 759.438 215L759.062 214.562L759.688 199.812C764.729 198.438 770.021 197.75 775.562 197.75H778.812C779.979 197.75 781.125 197.792 782.25 197.875C784.917 196.292 786.646 193.917 787.438 190.75C787.688 189.875 787.812 189 787.812 188.125C787.812 187.208 787.542 186.292 787 185.375C786.458 184.417 785.646 183.583 784.562 182.875C782.188 181.25 779.5 180.438 776.5 180.438C773.542 180.438 771.042 180.604 769 180.938C766.958 181.271 764.979 181.75 763.062 182.375C758.938 183.75 755.854 185.458 753.812 187.5L753.5 187.188L752.75 171.188C759.458 167.271 767.604 165.312 777.188 165.312C784.729 165.312 791.021 167.042 796.062 170.5C801.479 174.25 804.188 179.25 804.188 185.5C804.188 188.917 803.438 192 801.938 194.75C800.438 197.458 798.521 199.667 796.188 201.375ZM776.438 199.438C777.479 199.438 778.354 199.354 779.062 199.188L776.438 199.438Z" fill="black"/>
<rect x="1103.95" y="417.152" width="234.049" height="233.848" rx="60" fill="white"/>
<rect x="1103.95" y="417.152" width="234.049" height="233.848" rx="60" stroke="#292929" stroke-width="4"/>
<path d="M1241.31 534.812C1247.65 534.812 1252.9 534.271 1257.06 533.188L1257.38 533.625L1252.81 548.125H1241.31V570H1225.38V548.125H1186.88L1186.62 543.5L1221.19 487L1241.31 486.875V534.812ZM1225.38 534.812V505.188L1208.31 534.812H1225.38Z" fill="black"/>
<defs>
<linearGradient id="paint0_linear_2019_323" x1="-143.451" y1="133.624" x2="1459.49" y2="608.283" gradientUnits="userSpaceOnUse">
<stop stop-color="#3C3ED9"/>
<stop offset="1" stop-color="#F57C13"/>
</linearGradient>
</defs>
</svg>
